{
  "accessors": [
    {
      "bufferView": 2,
      "componentType": 5126,
      "count": 4,
      "max": [
        1.0,
        1.0,
        0.0
      ],
      "min": [
        -1.0,
        -1.0,
        0.0
      ],
      "type": "VEC3"
    },
    {
      "bufferView": 2,
      "byteOffset": 48,
      "componentType": 5126,
      "count": 4,
      "max": [
        0.0,
        0.0,
        1.0
      ],
      "min": [
        0.0,
        0.0,
        1.0
      ],
      "type": "VEC3"
    },
    {
      "bufferView": 1,
      "componentType": 5126,
      "count": 4,
      "max": [
        0.0,
        0.0
      ],
      "min": [
        0.0,
        0.0
      ],
      "type": "VEC2"
    },
    {
      "bufferView": 0,
      "componentType": 5125,
      "count": 6,
      "type": "SCALAR"
    },
    {
      "bufferView": 2,
      "byteOffset": 96,
      "componentType": 5126,
      "count": 498,
      "max": [
        5.372189521789551,
        0.04781046137213707,
        4.726101398468018
      ],
      "min": [
        -2.8597195148468018,
        -1.243503451347351,
        -4.679279327392578
      ],
      "type": "VEC3"
    },
    {
      "bufferView": 2,
      "byteOffset": 6072,
      "componentType": 5126,
      "count": 498,
      "max": [
        1.0,
        1.0,
        1.0
      ],
      "min": [
        -1.0,
        -1.0,
        -1.0
      ],
      "type": "VEC3"
    },
    {
      "bufferView": 1,
      "byteOffset": 32,
      "componentType": 5126,
      "count": 498,
      "max": [
        0.998046875,
        0.97509765625
      ],
      "min": [
        0.0810546875,
        0.001953125
      ],
      "type": "VEC2"
    },
    {
      "bufferView": 0,
      "byteOffset": 24,
      "componentType": 5125,
      "count": 1032,
      "type": "SCALAR"
    },
    {
      "bufferView": 2,
      "byteOffset": 12048,
      "componentType": 5126,
      "count": 148,
      "max": [
        3.4496224543545395e-08,
        0.4452255666255951,
        0.3946553170681
      ],
      "min": [
        -3.4546928873169236e-08,
        -0.26089343428611755,
        -0.39512109756469727
      ],
      "type": "VEC3"
    },
    {
      "bufferView": 2,
      "byteOffset": 13824,
      "componentType": 5126,
      "count": 148,
      "max": [
        1.0,
        0.3050456941127777,
        1.0
      ],
      "min": [
        -1.0,
        -0.02917332388460636,
        -4.894865242022206e-07
      ],
      "type": "VEC3"
    },
    {
      "bufferView": 1,
      "byteOffset": 4016,
      "componentType": 5126,
      "count": 148,
      "max": [
        0.998046875,
        0.841796875
      ],
      "min": [
        0.021484375,
        0.2119140625
      ],
      "type": "VEC2"
    },
    {
      "bufferView": 0,
      "byteOffset": 4152,
      "componentType": 5125,
      "count": 291,
      "type": "SCALAR"
    },
    {
      "bufferView": 2,
      "byteOffset": 15600,
      "componentType": 5126,
      "count": 1668,
      "max": [
        0.9768661260604858,
        1.9179426431655884,
        4.444602012634277
      ],
      "min": [
        -0.9768686890602112,
        -1.3453177213668823,
        -6.099417686462402
      ],
      "type": "VEC3"
    },
    {
      "bufferView": 2,
      "byteOffset": 35616,
      "componentType": 5126,
      "count": 1668,
      "max": [
        1.0,
        1.0,
        1.0
      ],
      "min": [
        -1.0,
        -1.0,
        -1.0
      ],
      "type": "VEC3"
    },
    {
      "bufferView": 1,
      "byteOffset": 5200,
      "componentType": 5126,
      "count": 1668,
      "max": [
        0.998046875,
        0.99853515625
      ],
      "min": [
        0.00439453125,
        0.001953125
      ],
      "type": "VEC2"
    },
    {
      "bufferView": 0,
      "byteOffset": 5316,
      "componentType": 5125,
      "count": 5352,
      "type": "SCALAR"
    },
    {
      "bufferView": 2,
      "byteOffset": 55632,
      "componentType": 5126,
      "count": 2778,
      "max": [
        4.248215675354004,
        3.433415651321411,
        4.011162281036377
      ],
      "min": [
        -4.248216152191162,
        -1.4666273593902588,
        -11.824714660644531
      ],
      "type": "VEC3"
    },
    {
      "bufferView": 2,
      "byteOffset": 88968,
      "componentType": 5126,
      "count": 2778,
      "max": [
        1.0,
        1.0,
        1.0
      ],
      "min": [
        -1.0,
        -1.0,
        -1.0
      ],
      "type": "VEC3"
    },
    {
      "bufferView": 1,
      "byteOffset": 18544,
      "componentType": 5126,
      "count": 2778,
      "max": [
        0.9980469346046448,
        0.998046875
      ],
      "min": [
        0.09228515625,
        0.0019531247671693563
      ],
      "type": "VEC2"
    },
    {
      "bufferView": 0,
      "byteOffset": 26724,
      "componentType": 5125,
      "count": 7542,
      "type": "SCALAR"
    },
    {
      "bufferView": 2,
      "byteOffset": 122304,
      "componentType": 5126,
      "count": 378,
      "max": [
        7.2381978034973145,
        0.764502763748169,
        6.334331512451172
      ],
      "min": [
        -3.8738760948181152,
        -0.37976938486099243,
        -6.310454368591309
      ],
      "type": "VEC3"
    },
    {
      "bufferView": 2,
      "byteOffset": 126840,
      "componentType": 5126,
      "count": 378,
      "max": [
        1.0,
        1.0,
        1.0
      ],
      "min": [
        -1.0,
        -1.0,
        -1.0
      ],
      "type": "VEC3"
    },
    {
      "bufferView": 1,
      "byteOffset": 40768,
      "componentType": 5126,
      "count": 378,
      "max": [
        0.998046875,
        0.97509765625
      ],
      "min": [
        0.0810546875,
        0.001953125
      ],
      "type": "VEC2"
    },
    {
      "bufferView": 0,
      "byteOffset": 56892,
      "componentType": 5125,
      "count": 888,
      "type": "SCALAR"
    },
    {
      "bufferView": 2,
      "byteOffset": 131376,
      "componentType": 5126,
      "count": 330,
      "max": [
        3.8738813400268555,
        0.047301989048719406,
        6.334326267242432
      ],
      "min": [
        -7.238198280334473,
        -0.44511592388153076,
        -6.310458183288574
      ],
      "type": "VEC3"
    },
    {
      "bufferView": 2,
      "byteOffset": 135336,
      "componentType": 5126,
      "count": 330,
      "max": [
        1.0,
        1.0,
        1.0
      ],
      "min": [
        -1.0,
        -1.0,
        -1.0
      ],
      "type": "VEC3"
    },
    {
      "bufferView": 1,
      "byteOffset": 43792,
      "componentType": 5126,
      "count": 330,
      "max": [
        0.998046875,
        0.97509765625
      ],
      "min": [
        0.0810546875,
        0.001953125
      ],
      "type": "VEC2"
    },
    {
      "bufferView": 0,
      "byteOffset": 60444,
      "componentType": 5125,
      "count": 792,
      "type": "SCALAR"
    },
    {
      "bufferView": 2,
      "byteOffset": 139296,
      "componentType": 5126,
      "count": 2251,
      "max": [
        6.6230268478393555,
        5.258968353271484,
        16.37348175048828
      ],
      "min": [
        -6.623014450073242,
        -6.046027660369873,
        -25.6953182220459
      ],
      "type": "VEC3"
    },
    {
      "bufferView": 2,
      "byteOffset": 166308,
      "componentType": 5126,
      "count": 2251,
      "max": [
        1.0,
        1.0,
        1.0
      ],
      "min": [
        -1.0,
        -1.0,
        -1.0
      ],
      "type": "VEC3"
    },
    {
      "bufferView": 1,
      "byteOffset": 46432,
      "componentType": 5126,
      "count": 2251,
      "max": [
        0.99853515625,
        0.998046875
      ],
      "min": [
        0.04541015625,
        0.001953125
      ],
      "type": "VEC2"
    },
    {
      "bufferView": 0,
      "byteOffset": 63612,
      "componentType": 5125,
      "count": 6630,
      "type": "SCALAR"
    },
    {
      "bufferView": 2,
      "byteOffset": 193320,
      "componentType": 5126,
      "count": 408,
      "max": [
        0.4998333752155304,
        3.7102131843566895,
        3.7102136611938477
      ],
      "min": [
        -1.0,
        -3.7102131843566895,
        -3.7102136611938477
      ],
      "type": "VEC3"
    },
    {
      "bufferView": 2,
      "byteOffset": 198216,
      "componentType": 5126,
      "count": 408,
      "max": [
        1.0,
        1.0,
        1.0
      ],
      "min": [
        -1.0,
        -1.0,
        -1.0
      ],
      "type": "VEC3"
    },
    {
      "bufferView": 1,
      "byteOffset": 64440,
      "componentType": 5126,
      "count": 408,
      "max": [
        0.998046875,
        0.841796875
      ],
      "min": [
        0.021484375,
        0.2119140625
      ],
      "type": "VEC2"
    },
    {
      "bufferView": 0,
      "byteOffset": 90132,
      "componentType": 5125,
      "count": 804,
      "type": "SCALAR"
    },
    {
      "bufferView": 2,
      "byteOffset": 203112,
      "componentType": 5126,
      "count": 864,
      "max": [
        18.99777603149414,
        0.16908390820026398,
        16.70448875427246
      ],
      "min": [
        -18.978261947631836,
        -4.397428512573242,
        -16.70429229736328
      ],
      "type": "VEC3"
    },
    {
      "bufferView": 2,
      "byteOffset": 213480,
      "componentType": 5126,
      "count": 864,
      "max": [
        1.0,
        1.0,
        1.0
      ],
      "min": [
        -1.0,
        -1.0,
        -1.0
      ],
      "type": "VEC3"
    },
    {
      "bufferView": 1,
      "byteOffset": 67704,
      "componentType": 5126,
      "count": 864,
      "max": [
        0.998046875,
        0.998046875
      ],
      "min": [
        0.998046875,
        0.001953125
      ],
      "type": "VEC2"
    },
    {
      "bufferView": 0,
      "byteOffset": 93348,
      "componentType": 5125,
      "count": 1716,
      "type": "SCALAR"
    }
  ],
  "asset": {
    "extras": {
      "author": "gvrocksnow (https://sketchfab.com/gvrocksnow)",
      "license": "SKETCHFAB Standard (https://sketchfab.com/licenses)",
      "source": "https://sketchfab.com/3d-models/low-poly-helicopters-pack-free-56b1a04cb4604d50b25f50b63beb3f1d",
      "title": "Low Poly Helicopters Pack Free"
    },
    "generator": "Sketchfab-17.7.0",
    "version": "2.0"
  },
  "bufferViews": [
    {
      "buffer": 0,
      "byteLength": 100212,
      "name": "floatBufferViews",
      "target": 34963
    },
    {
      "buffer": 0,
      "byteLength": 74616,
      "byteOffset": 100212,
      "byteStride": 8,
      "name": "floatBufferViews",
      "target": 34962
    },
    {
      "buffer": 0,
      "byteLength": 223848,
      "byteOffset": 174828,
      "byteStride": 12,
      "name": "floatBufferViews",
      "target": 34962
    }
  ],
  "buffers": [
    {
      "byteLength": 398676,
      "uri": "scene.bin"
    }
  ],
  "images": [
    {
      "uri": "textures/Ground_baseColor.png"
    },
    {
      "uri": "textures/PaletteTextureUltra_baseColor.png"
    }
  ],
  "materials": [
    {
      "doubleSided": true,
      "name": "Ground",
      "pbrMetallicRoughness": {
        "baseColorFactor": [
          0.02064994,
          0.02064994,
          0.02064994,
          1.0
        ],
        "baseColorTexture": {
          "index": 0
        },
        "metallicFactor": 0.0,
        "roughnessFactor": 0.6
      }
    },
    {
      "doubleSided": true,
      "emissiveFactor": [
        0.1,
        0.1,
        0.1
      ],
      "emissiveTexture": {
        "index": 1
      },
      "name": "PaletteTextureUltra",
      "pbrMetallicRoughness": {
        "baseColorTexture": {
          "index": 1
        },
        "metallicFactor": 0.0,
        "roughnessFactor": 0.6
      }
    }
  ],
  "meshes": [
    {
      "name": "Plane_Ground_0",
      "primitives": [
        {
          "attributes": {
            "NORMAL": 1,
            "POSITION": 0,
            "TEXCOORD_0": 2
          },
          "indices": 3,
          "material": 0,
          "mode": 4
        }
      ]
    },
    {
      "name": "Rotor.002_PaletteTextureUltra_0",
      "primitives": [
        {
          "attributes": {
            "NORMAL": 5,
            "POSITION": 4,
            "TEXCOORD_0": 6
          },
          "indices": 7,
          "material": 1,
          "mode": 4
        }
      ]
    },
    {
      "name": "Rotor_Back.004_PaletteTextureUltra_0",
      "primitives": [
        {
          "attributes": {
            "NORMAL": 9,
            "POSITION": 8,
            "TEXCOORD_0": 10
          },
          "indices": 11,
          "material": 1,
          "mode": 4
        }
      ]
    },
    {
      "name": "Body.005_PaletteTextureUltra_0",
      "primitives": [
        {
          "attributes": {
            "NORMAL": 13,
            "POSITION": 12,
            "TEXCOORD_0": 14
          },
          "indices": 15,
          "material": 1,
          "mode": 4
        }
      ]
    },
    {
      "name": "Body.004_PaletteTextureUltra_0",
      "primitives": [
        {
          "attributes": {
            "NORMAL": 17,
            "POSITION": 16,
            "TEXCOORD_0": 18
          },
          "indices": 19,
          "material": 1,
          "mode": 4
        }
      ]
    },
    {
      "name": "Rotor_Twin_Lower_PaletteTextureUltra_0",
      "primitives": [
        {
          "attributes": {
            "NORMAL": 21,
            "POSITION": 20,
            "TEXCOORD_0": 22
          },
          "indices": 23,
          "material": 1,
          "mode": 4
        }
      ]
    },
    {
      "name": "Rotor_Twin_Upper_PaletteTextureUltra_0",
      "primitives": [
        {
          "attributes": {
            "NORMAL": 25,
            "POSITION": 24,
            "TEXCOORD_0": 26
          },
          "indices": 27,
          "material": 1,
          "mode": 4
        }
      ]
    },
    {
      "name": "Body.003_PaletteTextureUltra_0",
      "primitives": [
        {
          "attributes": {
            "NORMAL": 29,
            "POSITION": 28,
            "TEXCOORD_0": 30
          },
          "indices": 31,
          "material": 1,
          "mode": 4
        }
      ]
    },
    {
      "name": "Rotor_Back.003_PaletteTextureUltra_0",
      "primitives": [
        {
          "attributes": {
            "NORMAL": 33,
            "POSITION": 32,
            "TEXCOORD_0": 34
          },
          "indices": 35,
          "material": 1,
          "mode": 4
        }
      ]
    },
    {
      "name": "Rotor.001_PaletteTextureUltra_0",
      "primitives": [
        {
          "attributes": {
            "NORMAL": 37,
            "POSITION": 36,
            "TEXCOORD_0": 38
          },
          "indices": 39,
          "material": 1,
          "mode": 4
        }
      ]
    }
  ],
  "nodes": [
    {
      "children": [
        1
      ],
      "matrix": [
        0.06137043610215187,
        0.0,
        0.0,
        0.0,
        0.0,
        1.362697423837919e-17,
        -0.06137043610215187,
        0.0,
        0.0,
        0.06137043610215187,
        1.362697423837919e-17,
        0.0,
        0.0,
        0.0,
        0.0,
        1.0
      ],
      "name": "Sketchfab_model"
    },
    {
      "children": [
        2
      ],
      "matrix": [
        1.0,
        0.0,
        0.0,
        0.0,
        0.0,
        0.0,
        1.0,
        0.0,
        0.0,
        -1.0,
        0.0,
        0.0,
        0.0,
        0.0,
        0.0,
        1.0
      ],
      "name": "1a800f227a46418c8aa6d3c27198e226.fbx"
    },
    {
      "children": [
        3,
        5,
        7,
        9,
        11,
        13,
        15,
        17,
        19,
        21
      ],
      "name": "RootNode"
    },
    {
      "children": [
        4
      ],
      "matrix": [
        68.03319549560547,
        0.0,
        0.0,
        0.0,
        0.0,
        -1.1084014431341328e-05,
        -68.03319549560457,
        0.0,
        0.0,
        0.9999999999999868,
        -1.6292067939183141e-07,
        0.0,
        1.1184728521129728e-07,
        0.0,
        0.0,
        1.0
      ],
      "name": "Plane"
    },
    {
      "mesh": 0,
      "name": "Plane_Ground_0"
    },
    {
      "children": [
        6
      ],
      "matrix": [
        1.0,
        0.0,
        0.0,
        0.0,
        0.0,
        0.9999999999934478,
        3.6199901387511154e-06,
        0.0,
        0.0,
        -3.6199901387511154e-06,
        0.9999999999934478,
        0.0,
        13.60339641571045,
        2.844639301300049,
        1.9230117797851563,
        1.0
      ],
      "name": "Rotor.002"
    },
    {
      "mesh": 1,
      "name": "Rotor.002_PaletteTextureUltra_0"
    },
    {
      "children": [
        8
      ],
      "matrix": [
        1.0,
        0.0,
        0.0,
        0.0,
        0.0,
        0.9999999999934478,
        3.6199901387511154e-06,
        0.0,
        0.0,
        -3.6199901387511154e-06,
        0.9999999999934478,
        0.0,
        13.60339641571045,
        1.7110919952392578,
        -4.156459808349609,
        1.0
      ],
      "name": "Rotor_Back.004"
    },
    {
      "mesh": 2,
      "name": "Rotor_Back.004_PaletteTextureUltra_0"
    },
    {
      "children": [
        10
      ],
      "matrix": [
        1.0,
        0.0,
        0.0,
        0.0,
        0.0,
        0.9999999999934478,
        3.6199901387511154e-06,
        0.0,
        0.0,
        -3.6199901387511154e-06,
        0.9999999999934478,
        0.0,
        13.603398323059082,
        1.38554847240448,
        1.105611801147461,
        1.0
      ],
      "name": "Body.005"
    },
    {
      "mesh": 3,
      "name": "Body.005_PaletteTextureUltra_0"
    },
    {
      "children": [
        12
      ],
      "matrix": [
        1.0,
        0.0,
        0.0,
        0.0,
        0.0,
        0.9999999999934478,
        3.6199901387511154e-06,
        0.0,
        0.0,
        -3.6199901387511154e-06,
        0.9999999999934478,
        0.0,
        -16.150365829467773,
        1.514582633972168,
        2.5548439025878906,
        1.0
      ],
      "name": "Body.004"
    },
    {
      "mesh": 4,
      "name": "Body.004_PaletteTextureUltra_0"
    },
    {
      "children": [
        14
      ],
      "matrix": [
        1.0,
        0.0,
        0.0,
        0.0,
        0.0,
        0.9999999999934478,
        3.6199901387511154e-06,
        0.0,
        0.0,
        -3.6199901387511154e-06,
        0.9999999999934478,
        0.0,
        -16.150365829467773,
        2.80627179145813,
        1.9667396545410156,
        1.0
      ],
      "name": "Rotor_Twin_Lower"
    },
    {
      "mesh": 5,
      "name": "Rotor_Twin_Lower_PaletteTextureUltra_0"
    },
    {
      "children": [
        16
      ],
      "matrix": [
        1.0,
        0.0,
        0.0,
        0.0,
        0.0,
        0.9999999999934478,
        3.6199901387511154e-06,
        0.0,
        0.0,
        -3.6199901387511154e-06,
        0.9999999999934478,
        0.0,
        -16.150365829467773,
        3.8663711547851563,
        1.9667396545410156,
        1.0
      ],
      "name": "Rotor_Twin_Upper"
    },
    {
      "mesh": 6,
      "name": "Rotor_Twin_Upper_PaletteTextureUltra_0"
    },
    {
      "children": [
        18
      ],
      "matrix": [
        1.0,
        0.0,
        0.0,
        0.0,
        0.0,
        0.9999999999934478,
        3.6199901387511154e-06,
        0.0,
        0.0,
        -3.6199901387511154e-06,
        0.9999999999934478,
        0.0,
        -0.19364356994628906,
        6.0298614501953125,
        -1.3693342208862305,
        1.0
      ],
      "name": "Body.003"
    },
    {
      "mesh": 7,
      "name": "Body.003_PaletteTextureUltra_0"
    },
    {
      "children": [
        20
      ],
      "matrix": [
        1.0,
        0.0,
        0.0,
        0.0,
        0.0,
        0.9999999999934478,
        3.6199901387511154e-06,
        0.0,
        0.0,
        -3.6199901387511154e-06,
        0.9999999999934478,
        0.0,
        0.5631885528564453,
        10.990734100341797,
        -26.946786880493164,
        1.0
      ],
      "name": "Rotor_Back.003"
    },
    {
      "mesh": 8,
      "name": "Rotor_Back.003_PaletteTextureUltra_0"
    },
    {
      "children": [
        22
      ],
      "matrix": [
        1.0,
        0.0,
        0.0,
        0.0,
        0.0,
        0.9999999999934478,
        3.6199901387511154e-06,
        0.0,
        0.0,
        -3.6199901387511154e-06,
        0.9999999999934478,
        0.0,
        -0.19364356994628906,
        10.431516647338867,
        -0.06624698638916016,
        1.0
      ],
      "name": "Rotor.001"
    },
    {
      "mesh": 9,
      "name": "Rotor.001_PaletteTextureUltra_0"
    }
  ],
  "samplers": [
    {
      "magFilter": 9729,
      "minFilter": 9987,
      "wrapS": 10497,
      "wrapT": 10497
    }
  ],
  "scene": 0,
  "scenes": [
    {
      "name": "Sketchfab_Scene",
      "nodes": [
        0
      ]
    }
  ],
  "textures": [
    {
      "sampler": 0,
      "source": 0
    },
    {
      "sampler": 0,
      "source": 1
    }
  ]
}
