<?xml version="1.0" encoding="utf-8"?><!-- Uploaded to: SVG Repo, www.svgrepo.com, Generator: SVG Repo Mixer Tools -->
<svg fill="#ffffff" width="800px" height="800px" viewBox="0 0 24 24" xmlns="http://www.w3.org/2000/svg">
  <path fill-rule="evenodd" d="M11.1758045,11.5299649 C11.7222481,10.7630248 11.6612694,9.95529555 11.2823626,8.50234466 C10.5329929,5.62882187 10.8313891,4.05382867 13.4147321,2.18916004 L14.6756139,1.27904986 L14.9805807,2.80388386 C15.3046861,4.42441075 15.8369398,5.42670671 17.2035766,7.35464078 C17.2578735,7.43122022 17.2578735,7.43122022 17.3124108,7.50814226 C19.2809754,10.2854144 20,11.9596204 20,15 C20,18.6883517 16.2713564,22 12,22 C7.72840879,22 4,18.6888043 4,15 C4,14.9310531 4.00007066,14.9331427 3.98838852,14.6284506 C3.89803284,12.2718054 4.33380946,10.4273676 6.09706666,8.43586022 C6.46961415,8.0150872 6.8930834,7.61067534 7.36962714,7.22370749 L8.42161802,6.36945926 L8.9276612,7.62657706 C9.30157948,8.55546878 9.73969716,9.28566491 10.2346078,9.82150804 C10.6537848,10.2753538 10.9647401,10.8460665 11.1758045,11.5299649 Z"/>
</svg>