# Blender 4.3.2
# www.blender.org
o Cylinder
v -0.222738 0.000000 -0.974878
v -1.325612 1.000000 -0.407874
v 0.037169 0.000000 -0.999309
v -1.174877 1.000000 -0.737070
v 0.294542 0.000000 -0.955638
v -0.944077 1.000000 -1.016036
v 0.531844 0.000000 -0.846843
v -0.648939 1.000000 -1.225760
v 0.732900 0.000000 -0.680336
v -0.309577 1.000000 -1.351951
v 0.884011 0.000000 -0.467465
v 0.050883 1.000000 -1.386009
v 0.974878 0.000000 -0.222738
v 0.407874 1.000000 -1.325612
v 0.999309 0.000000 0.037169
v 0.737070 1.000000 -1.174877
v 0.955638 0.000000 0.294542
v 1.016036 1.000000 -0.944077
v 0.846843 0.000000 0.531844
v 1.225760 1.000000 -0.648939
v 0.680336 0.000000 0.732900
v 1.351951 1.000000 -0.309577
v 0.467465 0.000000 0.884011
v 1.386009 1.000000 0.050883
v 0.222738 0.000000 0.974878
v 1.325612 1.000000 0.407874
v -0.037169 0.000000 0.999309
v 1.174877 1.000000 0.737070
v -0.294542 0.000000 0.955638
v 0.944077 1.000000 1.016036
v -0.531844 0.000000 0.846843
v 0.648939 1.000000 1.225760
v -0.732900 0.000000 0.680336
v 0.309576 1.000000 1.351951
v -0.884011 0.000000 0.467465
v -0.050883 1.000000 1.386009
v -0.974878 0.000000 0.222738
v -0.407874 1.000000 1.325612
v -0.999309 0.000000 -0.037169
v -0.737070 1.000000 1.174877
v -0.955638 0.000000 -0.294542
v -1.016036 1.000000 0.944077
v -0.846843 0.000000 -0.531844
v -1.225760 1.000000 0.648939
v -0.680336 0.000000 -0.732900
v -1.351951 1.000000 0.309577
v -0.467465 0.000000 -0.884011
v -1.386009 1.000000 -0.050883
v -0.690936 0.333333 -0.892863
v -1.110566 0.666667 -0.590856
v -0.919799 0.666667 -0.858159
v -0.436303 0.333333 -1.041267
v -0.666350 0.666667 -1.066979
v -0.151937 0.333333 -1.118710
v -0.367490 0.666667 -1.203087
v 0.142784 0.333333 -1.119915
v -0.043587 0.666667 -1.257206
v 0.427774 0.333333 -1.044800
v 0.283287 0.666667 -1.225649
v 0.683612 0.333333 -0.898483
v 0.590856 0.666667 -1.110566
v 0.892863 0.333333 -0.690936
v 0.858159 0.666667 -0.919799
v 1.041267 0.333333 -0.436303
v 1.066979 0.666667 -0.666350
v 1.118710 0.333333 -0.151937
v 1.203087 0.666667 -0.367490
v 1.119915 0.333333 0.142784
v 1.257206 0.666667 -0.043587
v 1.044800 0.333333 0.427774
v 1.225649 0.666667 0.283287
v 0.898483 0.333333 0.683612
v 1.110566 0.666667 0.590856
v 0.690936 0.333333 0.892863
v 0.919799 0.666667 0.858159
v 0.436303 0.333333 1.041267
v 0.666350 0.666667 1.066979
v 0.151937 0.333333 1.118710
v 0.367490 0.666667 1.203087
v -0.142784 0.333333 1.119915
v 0.043587 0.666667 1.257206
v -0.427774 0.333333 1.044800
v -0.283287 0.666667 1.225649
v -0.683612 0.333333 0.898483
v -0.590856 0.666667 1.110566
v -0.892863 0.333333 0.690936
v -0.858159 0.666667 0.919799
v -1.041267 0.333333 0.436303
v -1.066979 0.666667 0.666350
v -1.118710 0.333333 0.151937
v -1.203087 0.666667 0.367490
v -1.119915 0.333333 -0.142784
v -1.257206 0.666667 0.043587
v -1.044800 0.333333 -0.427774
v -1.225649 0.666667 -0.283287
v -0.898483 0.333333 -0.683612
vn -0.3418 -0.3674 -0.8650
vn -0.8790 -0.3619 -0.3104
vn -0.1063 -0.3674 -0.9240
vn -0.7687 -0.3619 -0.5273
vn 0.1365 -0.3674 -0.9200
vn -0.6060 -0.3619 -0.7083
vn 0.3699 -0.3674 -0.8534
vn -0.4021 -0.3619 -0.8411
vn 0.5782 -0.3674 -0.7285
vn -0.1707 -0.3619 -0.9165
vn 0.7470 -0.3674 -0.5541
vn 0.0723 -0.3619 -0.9294
vn 0.8650 -0.3674 -0.3418
vn 0.3104 -0.3619 -0.8790
vn 0.9240 -0.3674 -0.1063
vn 0.5273 -0.3619 -0.7687
vn 0.9200 -0.3674 0.1364
vn 0.7083 -0.3619 -0.6060
vn 0.8534 -0.3674 0.3699
vn 0.8411 -0.3619 -0.4021
vn 0.7285 -0.3674 0.5782
vn 0.9165 -0.3619 -0.1707
vn 0.5541 -0.3674 0.7470
vn 0.9294 -0.3619 0.0723
vn 0.3418 -0.3674 0.8650
vn 0.8790 -0.3619 0.3104
vn 0.1063 -0.3674 0.9240
vn 0.7687 -0.3619 0.5273
vn -0.1365 -0.3674 0.9200
vn 0.6060 -0.3619 0.7083
vn -0.3699 -0.3674 0.8534
vn 0.4021 -0.3619 0.8411
vn -0.5782 -0.3674 0.7285
vn 0.1707 -0.3619 0.9165
vn -0.7470 -0.3674 0.5541
vn -0.0723 -0.3619 0.9294
vn -0.8650 -0.3674 0.3418
vn -0.3104 -0.3619 0.8790
vn -0.9240 -0.3674 0.1063
vn -0.5273 -0.3619 0.7687
vn -0.9200 -0.3674 -0.1365
vn -0.7083 -0.3619 0.6060
vn -0.8534 -0.3674 -0.3699
vn -0.8411 -0.3619 0.4021
vn -0.7285 -0.3674 -0.5782
vn -0.9165 -0.3619 0.1707
vn -0.5541 -0.3674 -0.7470
vn -0.9294 -0.3619 -0.0723
vn -0.5741 -0.3702 -0.7303
vn -0.8055 -0.3656 -0.4663
vn -0.6574 -0.3656 -0.6589
vn -0.3656 -0.3702 -0.8540
vn -0.4644 -0.3656 -0.8066
vn -0.1321 -0.3702 -0.9195
vn -0.2398 -0.3656 -0.8993
vn 0.1104 -0.3702 -0.9224
vn 0.0011 -0.3656 -0.9308
vn 0.3454 -0.3702 -0.8624
vn 0.2420 -0.3656 -0.8988
vn 0.5568 -0.3702 -0.7436
vn 0.4663 -0.3656 -0.8055
vn 0.7303 -0.3702 -0.5741
vn 0.6589 -0.3656 -0.6574
vn 0.8540 -0.3702 -0.3656
vn 0.8066 -0.3656 -0.4644
vn 0.9195 -0.3702 -0.1321
vn 0.8993 -0.3656 -0.2398
vn 0.9224 -0.3702 0.1104
vn 0.9308 -0.3656 0.0011
vn 0.8624 -0.3702 0.3454
vn 0.8988 -0.3656 0.2420
vn 0.7436 -0.3702 0.5568
vn 0.8055 -0.3656 0.4663
vn 0.5741 -0.3702 0.7303
vn 0.6574 -0.3656 0.6589
vn 0.3656 -0.3702 0.8540
vn 0.4644 -0.3656 0.8066
vn 0.1321 -0.3702 0.9195
vn 0.2398 -0.3656 0.8993
vn -0.1104 -0.3702 0.9224
vn -0.0011 -0.3656 0.9308
vn -0.3454 -0.3702 0.8624
vn -0.2420 -0.3656 0.8988
vn -0.5568 -0.3702 0.7436
vn -0.4663 -0.3656 0.8055
vn -0.7303 -0.3702 0.5741
vn -0.6589 -0.3656 0.6574
vn -0.8540 -0.3702 0.3656
vn -0.8066 -0.3656 0.4644
vn -0.9195 -0.3702 0.1321
vn -0.8993 -0.3656 0.2398
vn -0.9224 -0.3702 -0.1104
vn -0.9308 -0.3656 -0.0011
vn -0.8624 -0.3702 -0.3454
vn -0.8988 -0.3656 -0.2420
vn -0.7436 -0.3702 -0.5568
vt 1.000000 0.666667
vt 1.000000 1.000000
vt 0.958333 1.000000
vt 0.958333 0.666667
vt 0.916667 1.000000
vt 0.916667 0.666667
vt 0.875000 1.000000
vt 0.875000 0.666667
vt 0.833333 1.000000
vt 0.833333 0.666667
vt 0.791667 1.000000
vt 0.791667 0.666667
vt 0.750000 1.000000
vt 0.750000 0.666667
vt 0.708333 1.000000
vt 0.708333 0.666667
vt 0.666667 1.000000
vt 0.666667 0.666667
vt 0.625000 1.000000
vt 0.625000 0.666667
vt 0.583333 1.000000
vt 0.583333 0.666667
vt 0.541666 1.000000
vt 0.541666 0.666667
vt 0.500000 1.000000
vt 0.500000 0.666667
vt 0.458333 1.000000
vt 0.458333 0.666667
vt 0.416666 1.000000
vt 0.416666 0.666667
vt 0.375000 1.000000
vt 0.375000 0.666667
vt 0.333333 1.000000
vt 0.333333 0.666667
vt 0.291667 1.000000
vt 0.291667 0.666667
vt 0.250000 1.000000
vt 0.250000 0.666667
vt 0.208333 1.000000
vt 0.208333 0.666667
vt 0.166666 1.000000
vt 0.166666 0.666667
vt 0.125000 1.000000
vt 0.125000 0.666667
vt 0.083333 1.000000
vt 0.083333 0.666667
vt 0.041666 1.000000
vt 0.041666 0.666667
vt -0.000000 1.000000
vt -0.000000 0.666667
vt 0.041666 0.000000
vt 0.041666 0.333333
vt -0.000000 0.333333
vt -0.000000 0.000000
vt 0.083333 0.000000
vt 0.083333 0.333333
vt 0.125000 0.000000
vt 0.125000 0.333333
vt 0.166666 0.000000
vt 0.166666 0.333333
vt 0.208333 0.000000
vt 0.208333 0.333333
vt 0.250000 0.000000
vt 0.250000 0.333333
vt 0.291667 0.000000
vt 0.291667 0.333333
vt 0.333333 0.000000
vt 0.333333 0.333333
vt 0.375000 0.000000
vt 0.375000 0.333333
vt 0.416666 0.000000
vt 0.416666 0.333333
vt 0.458333 0.000000
vt 0.458333 0.333333
vt 0.500000 0.000000
vt 0.500000 0.333333
vt 0.541666 0.000000
vt 0.541666 0.333333
vt 0.583333 0.000000
vt 0.583333 0.333333
vt 0.625000 0.000000
vt 0.625000 0.333333
vt 0.666667 0.000000
vt 0.666667 0.333333
vt 0.708333 0.000000
vt 0.708333 0.333333
vt 0.750000 0.000000
vt 0.750000 0.333333
vt 0.791667 0.000000
vt 0.791667 0.333333
vt 0.833333 0.000000
vt 0.833333 0.333333
vt 0.875000 0.000000
vt 0.875000 0.333333
vt 0.916667 0.000000
vt 0.916667 0.333333
vt 0.958333 0.000000
vt 0.958333 0.333333
vt 1.000000 0.000000
vt 1.000000 0.333333
s 1
f 50/1/50 2/2/2 4/3/4 51/4/51
f 51/4/51 4/3/4 6/5/6 53/6/53
f 53/6/53 6/5/6 8/7/8 55/8/55
f 55/8/55 8/7/8 10/9/10 57/10/57
f 57/10/57 10/9/10 12/11/12 59/12/59
f 59/12/59 12/11/12 14/13/14 61/14/61
f 61/14/61 14/13/14 16/15/16 63/16/63
f 63/16/63 16/15/16 18/17/18 65/18/65
f 65/18/65 18/17/18 20/19/20 67/20/67
f 67/20/67 20/19/20 22/21/22 69/22/69
f 69/22/69 22/21/22 24/23/24 71/24/71
f 71/24/71 24/23/24 26/25/26 73/26/73
f 73/26/73 26/25/26 28/27/28 75/28/75
f 75/28/75 28/27/28 30/29/30 77/30/77
f 77/30/77 30/29/30 32/31/32 79/32/79
f 79/32/79 32/31/32 34/33/34 81/34/81
f 81/34/81 34/33/34 36/35/36 83/36/83
f 83/36/83 36/35/36 38/37/38 85/38/85
f 85/38/85 38/37/38 40/39/40 87/40/87
f 87/40/87 40/39/40 42/41/42 89/42/89
f 89/42/89 42/41/42 44/43/44 91/44/91
f 91/44/91 44/43/44 46/45/46 93/46/93
f 93/46/93 46/45/46 48/47/48 95/48/95
f 95/48/95 48/47/48 2/49/2 50/50/50
f 47/51/47 96/52/96 49/53/49 1/54/1
f 96/52/96 95/48/95 50/50/50 49/53/49
f 45/55/45 94/56/94 96/52/96 47/51/47
f 94/56/94 93/46/93 95/48/95 96/52/96
f 43/57/43 92/58/92 94/56/94 45/55/45
f 92/58/92 91/44/91 93/46/93 94/56/94
f 41/59/41 90/60/90 92/58/92 43/57/43
f 90/60/90 89/42/89 91/44/91 92/58/92
f 39/61/39 88/62/88 90/60/90 41/59/41
f 88/62/88 87/40/87 89/42/89 90/60/90
f 37/63/37 86/64/86 88/62/88 39/61/39
f 86/64/86 85/38/85 87/40/87 88/62/88
f 35/65/35 84/66/84 86/64/86 37/63/37
f 84/66/84 83/36/83 85/38/85 86/64/86
f 33/67/33 82/68/82 84/66/84 35/65/35
f 82/68/82 81/34/81 83/36/83 84/66/84
f 31/69/31 80/70/80 82/68/82 33/67/33
f 80/70/80 79/32/79 81/34/81 82/68/82
f 29/71/29 78/72/78 80/70/80 31/69/31
f 78/72/78 77/30/77 79/32/79 80/70/80
f 27/73/27 76/74/76 78/72/78 29/71/29
f 76/74/76 75/28/75 77/30/77 78/72/78
f 25/75/25 74/76/74 76/74/76 27/73/27
f 74/76/74 73/26/73 75/28/75 76/74/76
f 23/77/23 72/78/72 74/76/74 25/75/25
f 72/78/72 71/24/71 73/26/73 74/76/74
f 21/79/21 70/80/70 72/78/72 23/77/23
f 70/80/70 69/22/69 71/24/71 72/78/72
f 19/81/19 68/82/68 70/80/70 21/79/21
f 68/82/68 67/20/67 69/22/69 70/80/70
f 17/83/17 66/84/66 68/82/68 19/81/19
f 66/84/66 65/18/65 67/20/67 68/82/68
f 15/85/15 64/86/64 66/84/66 17/83/17
f 64/86/64 63/16/63 65/18/65 66/84/66
f 13/87/13 62/88/62 64/86/64 15/85/15
f 62/88/62 61/14/61 63/16/63 64/86/64
f 11/89/11 60/90/60 62/88/62 13/87/13
f 60/90/60 59/12/59 61/14/61 62/88/62
f 9/91/9 58/92/58 60/90/60 11/89/11
f 58/92/58 57/10/57 59/12/59 60/90/60
f 7/93/7 56/94/56 58/92/58 9/91/9
f 56/94/56 55/8/55 57/10/57 58/92/58
f 5/95/5 54/96/54 56/94/56 7/93/7
f 54/96/54 53/6/53 55/8/55 56/94/56
f 3/97/3 52/98/52 54/96/54 5/95/5
f 52/98/52 51/4/51 53/6/53 54/96/54
f 1/99/1 49/100/49 52/98/52 3/97/3
f 49/100/49 50/1/50 51/4/51 52/98/52
