# Blender 4.3.2
# www.blender.org
o Cylinder
v 0.000000 0.000000 -1.000000
v 0.000000 1.000000 -1.759434
v 0.258819 0.000000 -0.965926
v 0.455375 1.000000 -1.699482
v 0.500000 0.000000 -0.866025
v 0.879717 1.000000 -1.523714
v 0.707107 0.000000 -0.707107
v 1.244107 1.000000 -1.244107
v 0.866025 0.000000 -0.500000
v 1.523714 1.000000 -0.879717
v 0.965926 0.000000 -0.258819
v 1.699482 1.000000 -0.455375
v 1.000000 0.000000 0.000000
v 1.759434 1.000000 -0.000000
v 0.965926 0.000000 0.258819
v 1.699482 1.000000 0.455375
v 0.866025 0.000000 0.500000
v 1.523714 1.000000 0.879717
v 0.707107 0.000000 0.707107
v 1.244107 1.000000 1.244107
v 0.500000 0.000000 0.866025
v 0.879717 1.000000 1.523714
v 0.258819 0.000000 0.965926
v 0.455375 1.000000 1.699482
v 0.000000 0.000000 1.000000
v 0.000000 1.000000 1.759434
v -0.258819 0.000000 0.965926
v -0.455375 1.000000 1.699482
v -0.500000 0.000000 0.866025
v -0.879717 1.000000 1.523714
v -0.707107 0.000000 0.707107
v -1.244107 1.000000 1.244107
v -0.866025 0.000000 0.500000
v -1.523714 1.000000 0.879717
v -0.965926 0.000000 0.258819
v -1.699482 1.000000 0.455375
v -1.000000 0.000000 0.000000
v -1.759434 1.000000 -0.000000
v -0.965926 0.000000 -0.258819
v -1.699482 1.000000 -0.455375
v -0.866025 0.000000 -0.500000
v -1.523714 1.000000 -0.879717
v -0.707107 0.000000 -0.707107
v -1.244107 1.000000 -1.244107
v -0.500000 0.000000 -0.866025
v -0.879717 1.000000 -1.523714
v -0.258819 0.000000 -0.965926
v -0.455375 1.000000 -1.699482
vn -0.0000 -0.6048 -0.7964
vn 0.2061 -0.6048 -0.7692
vn 0.3982 -0.6048 -0.6897
vn 0.5631 -0.6048 -0.5631
vn 0.6897 -0.6048 -0.3982
vn 0.7692 -0.6048 -0.2061
vn 0.7964 -0.6048 -0.0000
vn 0.7692 -0.6048 0.2061
vn 0.6897 -0.6048 0.3982
vn 0.5631 -0.6048 0.5631
vn 0.3982 -0.6048 0.6897
vn 0.2061 -0.6048 0.7692
vn -0.0000 -0.6048 0.7964
vn -0.2061 -0.6048 0.7692
vn -0.3982 -0.6048 0.6897
vn -0.5631 -0.6048 0.5631
vn -0.6897 -0.6048 0.3982
vn -0.7692 -0.6048 0.2061
vn -0.7964 -0.6048 -0.0000
vn -0.7692 -0.6048 -0.2061
vn -0.6897 -0.6048 -0.3982
vn -0.5631 -0.6048 -0.5631
vn -0.3982 -0.6048 -0.6897
vn -0.2061 -0.6048 -0.7692
vt 1.000000 0.000000
vt 1.000000 1.000000
vt 0.958333 1.000000
vt 0.958333 0.000000
vt 0.916667 1.000000
vt 0.916667 0.000000
vt 0.875000 1.000000
vt 0.875000 0.000000
vt 0.833333 1.000000
vt 0.833333 0.000000
vt 0.791667 1.000000
vt 0.791667 0.000000
vt 0.750000 1.000000
vt 0.750000 0.000000
vt 0.708333 1.000000
vt 0.708333 0.000000
vt 0.666667 1.000000
vt 0.666667 0.000000
vt 0.625000 1.000000
vt 0.625000 0.000000
vt 0.583333 1.000000
vt 0.583333 0.000000
vt 0.541666 1.000000
vt 0.541666 0.000000
vt 0.500000 1.000000
vt 0.500000 0.000000
vt 0.458333 1.000000
vt 0.458333 0.000000
vt 0.416666 1.000000
vt 0.416666 0.000000
vt 0.375000 1.000000
vt 0.375000 0.000000
vt 0.333333 1.000000
vt 0.333333 0.000000
vt 0.291667 1.000000
vt 0.291667 0.000000
vt 0.250000 1.000000
vt 0.250000 0.000000
vt 0.208333 1.000000
vt 0.208333 0.000000
vt 0.166666 1.000000
vt 0.166666 0.000000
vt 0.125000 1.000000
vt 0.125000 0.000000
vt 0.083333 1.000000
vt 0.083333 0.000000
vt 0.041666 1.000000
vt 0.041666 0.000000
vt -0.000000 1.000000
vt -0.000000 0.000000
s 1
f 1/1/1 2/2/1 4/3/2 3/4/2
f 3/4/2 4/3/2 6/5/3 5/6/3
f 5/6/3 6/5/3 8/7/4 7/8/4
f 7/8/4 8/7/4 10/9/5 9/10/5
f 9/10/5 10/9/5 12/11/6 11/12/6
f 11/12/6 12/11/6 14/13/7 13/14/7
f 13/14/7 14/13/7 16/15/8 15/16/8
f 15/16/8 16/15/8 18/17/9 17/18/9
f 17/18/9 18/17/9 20/19/10 19/20/10
f 19/20/10 20/19/10 22/21/11 21/22/11
f 21/22/11 22/21/11 24/23/12 23/24/12
f 23/24/12 24/23/12 26/25/13 25/26/13
f 25/26/13 26/25/13 28/27/14 27/28/14
f 27/28/14 28/27/14 30/29/15 29/30/15
f 29/30/15 30/29/15 32/31/16 31/32/16
f 31/32/16 32/31/16 34/33/17 33/34/17
f 33/34/17 34/33/17 36/35/18 35/36/18
f 35/36/18 36/35/18 38/37/19 37/38/19
f 37/38/19 38/37/19 40/39/20 39/40/20
f 39/40/20 40/39/20 42/41/21 41/42/21
f 41/42/21 42/41/21 44/43/22 43/44/22
f 43/44/22 44/43/22 46/45/23 45/46/23
f 45/46/23 46/45/23 48/47/24 47/48/24
f 47/48/24 48/47/24 2/49/1 1/50/1
