# Blender 4.3.2
# www.blender.org
o Cylinder
v -0.000000 0.000000 -0.139195
v 0.000000 0.583071 -1.000000
v 0.036026 0.000000 -0.134452
v 0.258819 0.583071 -0.965926
v 0.069598 0.000000 -0.120547
v 0.500000 0.583071 -0.866025
v 0.098426 0.000000 -0.098426
v 0.707107 0.583071 -0.707107
v 0.120547 0.000000 -0.069598
v 0.866025 0.583071 -0.500000
v 0.134452 0.000000 -0.036026
v 0.965926 0.583071 -0.258819
v 0.139195 0.000000 0.000000
v 1.000000 0.583071 0.000000
v 0.134452 0.000000 0.036026
v 0.965926 0.583071 0.258819
v 0.120547 0.000000 0.069598
v 0.866025 0.583071 0.500000
v 0.098426 0.000000 0.098426
v 0.707107 0.583071 0.707107
v 0.069598 0.000000 0.120547
v 0.500000 0.583071 0.866025
v 0.036026 0.000000 0.134452
v 0.258819 0.583071 0.965926
v -0.000000 0.000000 0.139195
v 0.000000 0.583071 1.000000
v -0.036026 0.000000 0.134452
v -0.258819 0.583071 0.965926
v -0.069598 0.000000 0.120547
v -0.500000 0.583071 0.866025
v -0.098426 0.000000 0.098426
v -0.707107 0.583071 0.707107
v -0.120547 0.000000 0.069598
v -0.866025 0.583071 0.500000
v -0.134452 0.000000 0.036026
v -0.965926 0.583071 0.258819
v -0.139195 0.000000 0.000000
v -1.000000 0.583071 0.000000
v -0.134452 0.000000 -0.036026
v -0.965926 0.583071 -0.258819
v -0.120547 0.000000 -0.069598
v -0.866025 0.583071 -0.500000
v -0.098426 0.000000 -0.098426
v -0.707107 0.583071 -0.707107
v -0.069598 0.000000 -0.120547
v -0.500000 0.583071 -0.866025
v -0.036026 0.000000 -0.134452
v -0.258819 0.583071 -0.965926
vn -0.0000 0.8279 0.5608
vn -0.1451 0.8279 0.5417
vn -0.2804 0.8279 0.4857
vn -0.3966 0.8279 0.3966
vn -0.4857 0.8279 0.2804
vn -0.5417 0.8279 0.1451
vn -0.5608 0.8279 -0.0000
vn -0.5417 0.8279 -0.1451
vn -0.4857 0.8279 -0.2804
vn -0.3966 0.8279 -0.3966
vn -0.2804 0.8279 -0.4857
vn -0.1451 0.8279 -0.5417
vn -0.0000 0.8279 -0.5608
vn 0.1451 0.8279 -0.5417
vn 0.2804 0.8279 -0.4857
vn 0.3966 0.8279 -0.3966
vn 0.4857 0.8279 -0.2804
vn 0.5417 0.8279 -0.1451
vn 0.5608 0.8279 -0.0000
vn 0.5417 0.8279 0.1451
vn 0.4857 0.8279 0.2804
vn 0.3966 0.8279 0.3966
vn 0.2804 0.8279 0.4857
vn 0.1451 0.8279 0.5417
vt 1.000000 0.000000
vt 0.958333 0.000000
vt 0.958333 1.000000
vt 1.000000 1.000000
vt 0.916667 0.000000
vt 0.916667 1.000000
vt 0.875000 0.000000
vt 0.875000 1.000000
vt 0.833333 0.000000
vt 0.833333 1.000000
vt 0.791667 0.000000
vt 0.791667 1.000000
vt 0.750000 0.000000
vt 0.750000 1.000000
vt 0.708333 0.000000
vt 0.708333 1.000000
vt 0.666667 0.000000
vt 0.666667 1.000000
vt 0.625000 0.000000
vt 0.625000 1.000000
vt 0.583333 0.000000
vt 0.583333 1.000000
vt 0.541666 0.000000
vt 0.541666 1.000000
vt 0.500000 0.000000
vt 0.500000 1.000000
vt 0.458333 0.000000
vt 0.458333 1.000000
vt 0.416666 0.000000
vt 0.416666 1.000000
vt 0.375000 0.000000
vt 0.375000 1.000000
vt 0.333333 0.000000
vt 0.333333 1.000000
vt 0.291667 0.000000
vt 0.291667 1.000000
vt 0.250000 0.000000
vt 0.250000 1.000000
vt 0.208333 0.000000
vt 0.208333 1.000000
vt 0.166666 0.000000
vt 0.166666 1.000000
vt 0.125000 0.000000
vt 0.125000 1.000000
vt 0.083333 0.000000
vt 0.083333 1.000000
vt 0.041666 0.000000
vt 0.041666 1.000000
vt -0.000000 0.000000
vt -0.000000 1.000000
s 1
f 1/1/1 3/2/2 4/3/2 2/4/1
f 3/2/2 5/5/3 6/6/3 4/3/2
f 5/5/3 7/7/4 8/8/4 6/6/3
f 7/7/4 9/9/5 10/10/5 8/8/4
f 9/9/5 11/11/6 12/12/6 10/10/5
f 11/11/6 13/13/7 14/14/7 12/12/6
f 13/13/7 15/15/8 16/16/8 14/14/7
f 15/15/8 17/17/9 18/18/9 16/16/8
f 17/17/9 19/19/10 20/20/10 18/18/9
f 19/19/10 21/21/11 22/22/11 20/20/10
f 21/21/11 23/23/12 24/24/12 22/22/11
f 23/23/12 25/25/13 26/26/13 24/24/12
f 25/25/13 27/27/14 28/28/14 26/26/13
f 27/27/14 29/29/15 30/30/15 28/28/14
f 29/29/15 31/31/16 32/32/16 30/30/15
f 31/31/16 33/33/17 34/34/17 32/32/16
f 33/33/17 35/35/18 36/36/18 34/34/17
f 35/35/18 37/37/19 38/38/19 36/36/18
f 37/37/19 39/39/20 40/40/20 38/38/19
f 39/39/20 41/41/21 42/42/21 40/40/20
f 41/41/21 43/43/22 44/44/22 42/42/21
f 43/43/22 45/45/23 46/46/23 44/44/22
f 45/45/23 47/47/24 48/48/24 46/46/23
f 47/47/24 1/49/1 2/50/1 48/48/24
