# Blender 4.3.2
# www.blender.org
mtllib sm_plane_spiked12.mtl
o Plane
v -1.000000 0.000000 1.000000
v 1.000000 0.000000 1.000000
v -1.000000 0.000000 -1.000000
v 1.000000 0.000000 -1.000000
v -0.383898 -0.146068 -0.383898
v -0.383898 -0.146068 0.383898
v 0.383898 -0.146068 0.383898
v 0.383898 -0.146068 -0.383898
v 0.000021 -0.547424 -0.000021
vn 0.1169 0.9862 -0.1169
vn -0.1169 0.9862 -0.1169
vn 0.1169 0.9862 0.1169
vn -0.1169 0.9862 0.1169
vn 0.2014 0.9586 0.2014
vn 0.2014 0.9586 -0.2014
vn -0.2014 0.9586 -0.2014
vn -0.2014 0.9586 0.2014
vn -0.0000 1.0000 -0.0000
vt 0.308051 0.308051
vt 0.500011 0.500011
vt 0.308051 0.691949
vt 0.000000 1.000000
vt 0.000000 0.000000
vt 0.691949 0.308051
vt 1.000000 0.000000
vt 0.691949 0.691949
vt 1.000000 1.000000
s 1
f 6/1/6 9/2/9 5/3/5
f 6/1/6 5/3/5 3/4/3 1/5/1
f 7/6/7 6/1/6 1/5/1 2/7/2
f 8/8/8 7/6/7 2/7/2 4/9/4
f 5/3/5 8/8/8 4/9/4 3/4/3
f 8/8/8 9/2/9 7/6/7
f 7/6/7 9/2/9 6/1/6
f 5/3/5 9/2/9 8/8/8
