# Blender 4.3.2
# www.blender.org
o Cylinder
v -0.171924 0.000000 -0.985110
v -1.448636 0.714699 -0.367866
v 0.088900 0.000000 -0.996041
v -1.304064 0.714699 -0.730266
v 0.343665 0.000000 -0.939092
v -1.070622 0.714699 -1.042900
v 0.575010 0.000000 -0.818147
v -0.764220 0.714699 -1.284461
v 0.767169 0.000000 -0.641446
v -0.405736 0.714699 -1.438489
v 0.907046 0.000000 -0.421031
v -0.019603 0.714699 -1.494486
v 0.985110 0.000000 -0.171924
v 0.367866 0.714699 -1.448636
v 0.996041 0.000000 0.088900
v 0.730266 0.714699 -1.304064
v 0.939092 0.000000 0.343665
v 1.042900 0.714699 -1.070622
v 0.818147 0.000000 0.575010
v 1.284461 0.714699 -0.764220
v 0.641446 0.000000 0.767169
v 1.438489 0.714699 -0.405736
v 0.421031 0.000000 0.907046
v 1.494486 0.714699 -0.019603
v 0.171924 0.000000 0.985110
v 1.448636 0.714699 0.367866
v -0.088900 0.000000 0.996041
v 1.304064 0.714699 0.730266
v -0.343665 0.000000 0.939092
v 1.070622 0.714699 1.042900
v -0.575010 0.000000 0.818147
v 0.764220 0.714699 1.284461
v -0.767168 0.000000 0.641446
v 0.405736 0.714699 1.438489
v -0.907046 0.000000 0.421031
v 0.019603 0.714699 1.494486
v -0.985110 0.000000 0.171924
v -0.367866 0.714699 1.448636
v -0.996041 0.000000 -0.088900
v -0.730266 0.714699 1.304064
v -0.939092 0.000000 -0.343665
v -1.042900 0.714699 1.070622
v -0.818147 0.000000 -0.575010
v -1.284461 0.714699 0.764220
v -0.641446 0.000000 -0.767169
v -1.438489 0.714699 0.405736
v -0.421031 0.000000 -0.907046
v -1.494486 0.714699 0.019603
v -0.498941 0.178675 -1.006805
v -0.847858 0.357349 -0.914829
v -1.178671 0.536024 -0.700192
v -0.957285 0.536024 -0.981396
v -0.582193 0.357349 -1.103099
v -0.221359 0.178675 -1.101634
v -0.670663 0.536024 -1.195719
v -0.276852 0.357349 -1.216194
v 0.071307 0.178675 -1.121389
v -0.338335 0.536024 -1.328557
v 0.047356 0.357349 -1.246408
v 0.359114 0.178675 -1.064723
v 0.017049 0.536024 -1.370855
v 0.368336 0.357349 -1.191681
v 0.622448 0.178675 -0.935498
v 0.371271 0.536024 -1.319731
v 0.664215 0.357349 -1.055743
v 0.843363 0.178675 -0.742520
v 0.700192 0.536024 -1.178671
v 0.914829 0.357349 -0.847858
v 1.006805 0.178675 -0.498941
v 0.981396 0.536024 -0.957285
v 1.103099 0.357349 -0.582193
v 1.101634 0.178675 -0.221359
v 1.195719 0.536024 -0.670663
v 1.216194 0.357349 -0.276852
v 1.121389 0.178675 0.071307
v 1.328557 0.536024 -0.338335
v 1.246408 0.357349 0.047356
v 1.064723 0.178675 0.359114
v 1.370855 0.536024 0.017049
v 1.191681 0.357349 0.368336
v 0.935498 0.178675 0.622448
v 1.319731 0.536024 0.371271
v 1.055743 0.357349 0.664215
v 0.742520 0.178675 0.843363
v 1.178671 0.536024 0.700192
v 0.847858 0.357349 0.914829
v 0.498941 0.178675 1.006805
v 0.957285 0.536024 0.981396
v 0.582193 0.357349 1.103099
v 0.221359 0.178675 1.101634
v 0.670663 0.536024 1.195719
v 0.276852 0.357349 1.216194
v -0.071307 0.178675 1.121389
v 0.338335 0.536024 1.328557
v -0.047356 0.357349 1.246408
v -0.359114 0.178675 1.064723
v -0.017049 0.536024 1.370855
v -0.368336 0.357349 1.191681
v -0.622448 0.178675 0.935498
v -0.371271 0.536024 1.319731
v -0.664215 0.357349 1.055743
v -0.843363 0.178675 0.742520
v -0.700192 0.536024 1.178671
v -0.914829 0.357349 0.847858
v -1.006805 0.178675 0.498941
v -0.981396 0.536024 0.957286
v -1.103099 0.357349 0.582192
v -1.101634 0.178675 0.221359
v -1.195719 0.536024 0.670663
v -1.216194 0.357349 0.276852
v -1.121389 0.178675 -0.071307
v -1.328557 0.536024 0.338335
v -1.246408 0.357349 -0.047356
v -1.064723 0.178675 -0.359114
v -1.370855 0.536024 -0.017049
v -1.191681 0.357349 -0.368336
v -0.935498 0.178675 -0.622448
v -1.319731 0.536024 -0.371271
v -1.055743 0.357349 -0.664215
v -0.742520 0.178675 -0.843363
vn -0.1975 -0.5718 -0.7963
vn -0.7842 -0.5716 -0.2414
vn 0.0154 -0.5718 -0.8203
vn -0.6951 -0.5716 -0.4361
vn 0.2272 -0.5718 -0.7884
vn -0.5585 -0.5716 -0.6012
vn 0.4235 -0.5718 -0.7027
vn -0.3839 -0.5716 -0.7252
vn 0.5909 -0.5718 -0.5692
vn -0.1831 -0.5716 -0.7999
vn 0.7181 -0.5718 -0.3968
vn 0.0302 -0.5716 -0.8200
vn 0.7963 -0.5718 -0.1975
vn 0.2414 -0.5716 -0.7842
vn 0.8203 -0.5718 0.0154
vn 0.4361 -0.5716 -0.6951
vn 0.7884 -0.5718 0.2272
vn 0.6012 -0.5716 -0.5585
vn 0.7027 -0.5718 0.4235
vn 0.7252 -0.5716 -0.3839
vn 0.5692 -0.5718 0.5909
vn 0.7999 -0.5716 -0.1831
vn 0.3968 -0.5718 0.7181
vn 0.8200 -0.5716 0.0302
vn 0.1975 -0.5718 0.7963
vn 0.7842 -0.5716 0.2414
vn -0.0154 -0.5718 0.8203
vn 0.6951 -0.5716 0.4361
vn -0.2272 -0.5718 0.7884
vn 0.5585 -0.5716 0.6012
vn -0.4235 -0.5718 0.7027
vn 0.3839 -0.5716 0.7252
vn -0.5909 -0.5718 0.5692
vn 0.1831 -0.5716 0.7999
vn -0.7181 -0.5718 0.3968
vn -0.0302 -0.5716 0.8200
vn -0.7963 -0.5718 0.1975
vn -0.2414 -0.5716 0.7842
vn -0.8203 -0.5718 -0.0154
vn -0.4361 -0.5716 0.6951
vn -0.7884 -0.5718 -0.2272
vn -0.6012 -0.5716 0.5585
vn -0.7027 -0.5718 -0.4235
vn -0.7252 -0.5716 0.3839
vn -0.5692 -0.5718 -0.5909
vn -0.7999 -0.5716 0.1831
vn -0.3968 -0.5718 -0.7181
vn -0.8200 -0.5716 -0.0302
vn -0.3683 -0.5725 -0.7325
vn -0.5606 -0.5723 -0.5985
vn -0.7072 -0.5721 -0.4155
vn -0.5755 -0.5721 -0.5843
vn -0.3866 -0.5723 -0.7232
vn -0.1662 -0.5725 -0.8029
vn -0.4047 -0.5721 -0.7134
vn -0.1862 -0.5723 -0.7986
vn 0.0473 -0.5725 -0.8185
vn -0.2063 -0.5721 -0.7938
vn 0.0268 -0.5723 -0.8196
vn 0.2575 -0.5725 -0.7784
vn 0.0062 -0.5721 -0.8201
vn 0.2380 -0.5723 -0.7847
vn 0.4502 -0.5725 -0.6852
vn 0.2183 -0.5721 -0.7906
vn 0.4330 -0.5723 -0.6964
vn 0.6122 -0.5725 -0.5453
vn 0.4155 -0.5721 -0.7072
vn 0.5985 -0.5723 -0.5606
vn 0.7325 -0.5725 -0.3683
vn 0.5843 -0.5721 -0.5755
vn 0.7232 -0.5723 -0.3866
vn 0.8029 -0.5725 -0.1662
vn 0.7134 -0.5721 -0.4047
vn 0.7986 -0.5723 -0.1862
vn 0.8185 -0.5725 0.0473
vn 0.7938 -0.5721 -0.2063
vn 0.8196 -0.5723 0.0268
vn 0.7784 -0.5725 0.2575
vn 0.8201 -0.5721 0.0062
vn 0.7847 -0.5723 0.2380
vn 0.6852 -0.5725 0.4502
vn 0.7906 -0.5721 0.2183
vn 0.6964 -0.5723 0.4330
vn 0.5453 -0.5725 0.6122
vn 0.7072 -0.5721 0.4155
vn 0.5606 -0.5723 0.5985
vn 0.3683 -0.5725 0.7325
vn 0.5755 -0.5721 0.5843
vn 0.3866 -0.5723 0.7232
vn 0.1662 -0.5725 0.8029
vn 0.4047 -0.5721 0.7134
vn 0.1862 -0.5723 0.7986
vn -0.0473 -0.5725 0.8185
vn 0.2063 -0.5721 0.7938
vn -0.0268 -0.5723 0.8196
vn -0.2575 -0.5725 0.7784
vn -0.0062 -0.5721 0.8201
vn -0.2380 -0.5723 0.7847
vn -0.4502 -0.5725 0.6852
vn -0.2183 -0.5721 0.7906
vn -0.4330 -0.5723 0.6964
vn -0.6122 -0.5725 0.5453
vn -0.4155 -0.5721 0.7072
vn -0.5985 -0.5723 0.5606
vn -0.7325 -0.5725 0.3683
vn -0.5843 -0.5721 0.5755
vn -0.7232 -0.5723 0.3866
vn -0.8029 -0.5725 0.1662
vn -0.7134 -0.5721 0.4047
vn -0.7986 -0.5723 0.1862
vn -0.8185 -0.5725 -0.0473
vn -0.7938 -0.5721 0.2063
vn -0.8196 -0.5723 -0.0268
vn -0.7784 -0.5725 -0.2575
vn -0.8201 -0.5721 -0.0062
vn -0.7847 -0.5723 -0.2380
vn -0.6852 -0.5725 -0.4502
vn -0.7906 -0.5721 -0.2183
vn -0.6964 -0.5723 -0.4330
vn -0.5453 -0.5725 -0.6122
vt 1.000000 0.750000
vt 1.000000 1.000000
vt 0.958333 1.000000
vt 0.958333 0.750000
vt 0.916667 1.000000
vt 0.916667 0.750000
vt 0.875000 1.000000
vt 0.875000 0.750000
vt 0.833333 1.000000
vt 0.833333 0.750000
vt 0.791667 1.000000
vt 0.791667 0.750000
vt 0.750000 1.000000
vt 0.750000 0.750000
vt 0.708333 1.000000
vt 0.708333 0.750000
vt 0.666667 1.000000
vt 0.666667 0.750000
vt 0.625000 1.000000
vt 0.625000 0.750000
vt 0.583333 1.000000
vt 0.583333 0.750000
vt 0.541666 1.000000
vt 0.541666 0.750000
vt 0.500000 1.000000
vt 0.500000 0.750000
vt 0.458333 1.000000
vt 0.458333 0.750000
vt 0.416666 1.000000
vt 0.416666 0.750000
vt 0.375000 1.000000
vt 0.375000 0.750000
vt 0.333333 1.000000
vt 0.333333 0.750000
vt 0.291667 1.000000
vt 0.291667 0.750000
vt 0.250000 1.000000
vt 0.250000 0.750000
vt 0.208333 1.000000
vt 0.208333 0.750000
vt 0.166666 1.000000
vt 0.166666 0.750000
vt 0.125000 1.000000
vt 0.125000 0.750000
vt 0.083333 1.000000
vt 0.083333 0.750000
vt 0.041666 1.000000
vt 0.041666 0.750000
vt -0.000000 1.000000
vt -0.000000 0.750000
vt 0.041666 0.000000
vt 0.041666 0.250000
vt -0.000000 0.250000
vt -0.000000 0.000000
vt 0.041666 0.500000
vt -0.000000 0.500000
vt 0.083333 0.000000
vt 0.083333 0.250000
vt 0.083333 0.500000
vt 0.125000 0.000000
vt 0.125000 0.250000
vt 0.125000 0.500000
vt 0.166666 0.000000
vt 0.166666 0.250000
vt 0.166666 0.500000
vt 0.208333 0.000000
vt 0.208333 0.250000
vt 0.208333 0.500000
vt 0.250000 0.000000
vt 0.250000 0.250000
vt 0.250000 0.500000
vt 0.291667 0.000000
vt 0.291667 0.250000
vt 0.291667 0.500000
vt 0.333333 0.000000
vt 0.333333 0.250000
vt 0.333333 0.500000
vt 0.375000 0.000000
vt 0.375000 0.250000
vt 0.375000 0.500000
vt 0.416666 0.000000
vt 0.416666 0.250000
vt 0.416666 0.500000
vt 0.458333 0.000000
vt 0.458333 0.250000
vt 0.458333 0.500000
vt 0.500000 0.000000
vt 0.500000 0.250000
vt 0.500000 0.500000
vt 0.541666 0.000000
vt 0.541666 0.250000
vt 0.541666 0.500000
vt 0.583333 0.000000
vt 0.583333 0.250000
vt 0.583333 0.500000
vt 0.625000 0.000000
vt 0.625000 0.250000
vt 0.625000 0.500000
vt 0.666667 0.000000
vt 0.666667 0.250000
vt 0.666667 0.500000
vt 0.708333 0.000000
vt 0.708333 0.250000
vt 0.708333 0.500000
vt 0.750000 0.000000
vt 0.750000 0.250000
vt 0.750000 0.500000
vt 0.791667 0.000000
vt 0.791667 0.250000
vt 0.791667 0.500000
vt 0.833333 0.000000
vt 0.833333 0.250000
vt 0.833333 0.500000
vt 0.875000 0.000000
vt 0.875000 0.250000
vt 0.875000 0.500000
vt 0.916667 0.000000
vt 0.916667 0.250000
vt 0.916667 0.500000
vt 0.958333 0.000000
vt 0.958333 0.250000
vt 0.958333 0.500000
vt 1.000000 0.000000
vt 1.000000 0.250000
vt 1.000000 0.500000
s 1
f 51/1/51 2/2/2 4/3/4 52/4/52
f 52/4/52 4/3/4 6/5/6 55/6/55
f 55/6/55 6/5/6 8/7/8 58/8/58
f 58/8/58 8/7/8 10/9/10 61/10/61
f 61/10/61 10/9/10 12/11/12 64/12/64
f 64/12/64 12/11/12 14/13/14 67/14/67
f 67/14/67 14/13/14 16/15/16 70/16/70
f 70/16/70 16/15/16 18/17/18 73/18/73
f 73/18/73 18/17/18 20/19/20 76/20/76
f 76/20/76 20/19/20 22/21/22 79/22/79
f 79/22/79 22/21/22 24/23/24 82/24/82
f 82/24/82 24/23/24 26/25/26 85/26/85
f 85/26/85 26/25/26 28/27/28 88/28/88
f 88/28/88 28/27/28 30/29/30 91/30/91
f 91/30/91 30/29/30 32/31/32 94/32/94
f 94/32/94 32/31/32 34/33/34 97/34/97
f 97/34/97 34/33/34 36/35/36 100/36/100
f 100/36/100 36/35/36 38/37/38 103/38/103
f 103/38/103 38/37/38 40/39/40 106/40/106
f 106/40/106 40/39/40 42/41/42 109/42/109
f 109/42/109 42/41/42 44/43/44 112/44/112
f 112/44/112 44/43/44 46/45/46 115/46/115
f 115/46/115 46/45/46 48/47/48 118/48/118
f 118/48/118 48/47/48 2/49/2 51/50/51
f 47/51/47 120/52/120 49/53/49 1/54/1
f 120/52/120 119/55/119 50/56/50 49/53/49
f 119/55/119 118/48/118 51/50/51 50/56/50
f 45/57/45 117/58/117 120/52/120 47/51/47
f 117/58/117 116/59/116 119/55/119 120/52/120
f 116/59/116 115/46/115 118/48/118 119/55/119
f 43/60/43 114/61/114 117/58/117 45/57/45
f 114/61/114 113/62/113 116/59/116 117/58/117
f 113/62/113 112/44/112 115/46/115 116/59/116
f 41/63/41 111/64/111 114/61/114 43/60/43
f 111/64/111 110/65/110 113/62/113 114/61/114
f 110/65/110 109/42/109 112/44/112 113/62/113
f 39/66/39 108/67/108 111/64/111 41/63/41
f 108/67/108 107/68/107 110/65/110 111/64/111
f 107/68/107 106/40/106 109/42/109 110/65/110
f 37/69/37 105/70/105 108/67/108 39/66/39
f 105/70/105 104/71/104 107/68/107 108/67/108
f 104/71/104 103/38/103 106/40/106 107/68/107
f 35/72/35 102/73/102 105/70/105 37/69/37
f 102/73/102 101/74/101 104/71/104 105/70/105
f 101/74/101 100/36/100 103/38/103 104/71/104
f 33/75/33 99/76/99 102/73/102 35/72/35
f 99/76/99 98/77/98 101/74/101 102/73/102
f 98/77/98 97/34/97 100/36/100 101/74/101
f 31/78/31 96/79/96 99/76/99 33/75/33
f 96/79/96 95/80/95 98/77/98 99/76/99
f 95/80/95 94/32/94 97/34/97 98/77/98
f 29/81/29 93/82/93 96/79/96 31/78/31
f 93/82/93 92/83/92 95/80/95 96/79/96
f 92/83/92 91/30/91 94/32/94 95/80/95
f 27/84/27 90/85/90 93/82/93 29/81/29
f 90/85/90 89/86/89 92/83/92 93/82/93
f 89/86/89 88/28/88 91/30/91 92/83/92
f 25/87/25 87/88/87 90/85/90 27/84/27
f 87/88/87 86/89/86 89/86/89 90/85/90
f 86/89/86 85/26/85 88/28/88 89/86/89
f 23/90/23 84/91/84 87/88/87 25/87/25
f 84/91/84 83/92/83 86/89/86 87/88/87
f 83/92/83 82/24/82 85/26/85 86/89/86
f 21/93/21 81/94/81 84/91/84 23/90/23
f 81/94/81 80/95/80 83/92/83 84/91/84
f 80/95/80 79/22/79 82/24/82 83/92/83
f 19/96/19 78/97/78 81/94/81 21/93/21
f 78/97/78 77/98/77 80/95/80 81/94/81
f 77/98/77 76/20/76 79/22/79 80/95/80
f 17/99/17 75/100/75 78/97/78 19/96/19
f 75/100/75 74/101/74 77/98/77 78/97/78
f 74/101/74 73/18/73 76/20/76 77/98/77
f 15/102/15 72/103/72 75/100/75 17/99/17
f 72/103/72 71/104/71 74/101/74 75/100/75
f 71/104/71 70/16/70 73/18/73 74/101/74
f 13/105/13 69/106/69 72/103/72 15/102/15
f 69/106/69 68/107/68 71/104/71 72/103/72
f 68/107/68 67/14/67 70/16/70 71/104/71
f 11/108/11 66/109/66 69/106/69 13/105/13
f 66/109/66 65/110/65 68/107/68 69/106/69
f 65/110/65 64/12/64 67/14/67 68/107/68
f 9/111/9 63/112/63 66/109/66 11/108/11
f 63/112/63 62/113/62 65/110/65 66/109/66
f 62/113/62 61/10/61 64/12/64 65/110/65
f 7/114/7 60/115/60 63/112/63 9/111/9
f 60/115/60 59/116/59 62/113/62 63/112/63
f 59/116/59 58/8/58 61/10/61 62/113/62
f 5/117/5 57/118/57 60/115/60 7/114/7
f 57/118/57 56/119/56 59/116/59 60/115/60
f 56/119/56 55/6/55 58/8/58 59/116/59
f 3/120/3 54/121/54 57/118/57 5/117/5
f 54/121/54 53/122/53 56/119/56 57/118/57
f 53/122/53 52/4/52 55/6/55 56/119/56
f 1/123/1 49/124/49 54/121/54 3/120/3
f 49/124/49 50/125/50 53/122/53 54/121/54
f 50/125/50 51/1/51 52/4/52 53/122/53
