# Blender 5.1.2
# www.blender.org
mtllib sm_waves_tornado.mtl
o Cylinder
v 0.000000 0.615740 -1.000000
v -1.238802 1.615740 -0.924952
v 0.258819 0.615740 -0.965926
v -0.957196 1.615740 -1.214061
v 0.500000 0.615740 -0.866025
v -0.610358 1.615740 -1.420433
v 0.707107 0.615740 -0.707107
v -0.221926 1.615740 -1.530005
v 0.866025 0.615740 -0.500000
v 0.181631 1.615740 -1.535311
v 0.965926 0.615740 -0.258819
v 0.572810 1.615740 -1.435987
v 1.000000 0.615740 0.000000
v 0.924952 1.615740 -1.238802
v 0.965926 0.615740 0.258819
v 1.214061 1.615740 -0.957196
v 0.866025 0.615740 0.500000
v 1.420433 1.615740 -0.610358
v 0.707107 0.615740 0.707107
v 1.530005 1.615740 -0.221926
v 0.500000 0.615740 0.866025
v 1.535311 1.615740 0.181631
v 0.258819 0.615740 0.965926
v 1.435987 1.615740 0.572810
v 0.000000 0.615740 1.000000
v 1.238802 1.615740 0.924952
v -0.258819 0.615740 0.965926
v 0.957196 1.615740 1.214061
v -0.500000 0.615740 0.866025
v 0.610358 1.615740 1.420433
v -0.707107 0.615740 0.707107
v 0.221925 1.615740 1.530005
v -0.866025 0.615740 0.500000
v -0.181631 1.615740 1.535311
v -0.965926 0.615740 0.258819
v -0.572810 1.615740 1.435987
v -1.000000 0.615740 0.000000
v -0.924952 1.615740 1.238802
v -0.965926 0.615740 -0.258819
v -1.214061 1.615740 0.957196
v -0.866025 0.615740 -0.500000
v -1.420433 1.615740 0.610358
v -0.707107 0.615740 -0.707107
v -1.530005 1.615740 0.221925
v -0.500000 0.615740 -0.866025
v -1.535311 1.615740 -0.181631
v -0.258819 0.615740 -0.965926
v -1.435987 1.615740 -0.572810
v -0.029663 0.826823 -1.114860
v -0.380089 1.076823 -1.192658
v -0.887537 1.326823 -1.067498
v -0.581006 1.326823 -1.260836
v -0.058456 1.076823 -1.250393
v 0.259895 0.826823 -1.084549
v -0.234881 1.326823 -1.368249
v 0.267162 1.076823 -1.222917
v 0.531741 0.826823 -0.980328
v 0.127252 1.326823 -1.382419
v 0.574573 1.076823 -1.112100
v 0.767350 0.826823 -0.809300
v 0.480712 1.326823 -1.302379
v 0.842827 1.076823 -0.925496
v 0.950666 0.826823 -0.583119
v 0.801413 1.326823 -1.133584
v 1.053645 1.076823 -0.675821
v 1.069195 0.826823 -0.317199
v 1.067498 1.326823 -0.887537
v 1.192658 1.076823 -0.380090
v 1.114860 0.826823 -0.029663
v 1.260836 1.326823 -0.581006
v 1.250393 1.076823 -0.058456
v 1.084549 0.826823 0.259895
v 1.368249 1.326823 -0.234881
v 1.222916 1.076823 0.267162
v 0.980328 0.826823 0.531741
v 1.382419 1.326823 0.127252
v 1.112100 1.076823 0.574573
v 0.809300 0.826823 0.767350
v 1.302379 1.326823 0.480712
v 0.925496 1.076823 0.842827
v 0.583119 0.826823 0.950666
v 1.133584 1.326823 0.801412
v 0.675821 1.076823 1.053645
v 0.317199 0.826823 1.069195
v 0.887537 1.326823 1.067498
v 0.380090 1.076823 1.192658
v 0.029663 0.826823 1.114860
v 0.581006 1.326823 1.260835
v 0.058456 1.076823 1.250393
v -0.259895 0.826823 1.084549
v 0.234881 1.326823 1.368249
v -0.267162 1.076823 1.222917
v -0.531741 0.826823 0.980328
v -0.127252 1.326823 1.382419
v -0.574573 1.076823 1.112100
v -0.767350 0.826823 0.809300
v -0.480712 1.326823 1.302379
v -0.842827 1.076823 0.925496
v -0.950666 0.826823 0.583119
v -0.801412 1.326823 1.133584
v -1.053645 1.076823 0.675821
v -1.069195 0.826823 0.317199
v -1.067498 1.326823 0.887537
v -1.192658 1.076823 0.380090
v -1.114860 0.826823 0.029663
v -1.260836 1.326823 0.581006
v -1.250393 1.076823 0.058456
v -1.084549 0.826823 -0.259895
v -1.368249 1.326823 0.234881
v -1.222917 1.076823 -0.267162
v -0.980328 0.826823 -0.531741
v -1.382419 1.326823 -0.127252
v -1.112100 1.076823 -0.574573
v -0.809300 0.826823 -0.767350
v -1.302379 1.326823 -0.480712
v -0.925496 1.076823 -0.842827
v -0.583119 0.826823 -0.950666
v -1.133584 1.326823 -0.801413
v -0.675821 1.076823 -1.053645
v -0.317199 0.826823 -1.069195
vn -0.0037 -0.4792 -0.8777
vn -0.6775 -0.4810 -0.5565
vn 0.2236 -0.4792 -0.8487
vn -0.5103 -0.4810 -0.7129
vn 0.4356 -0.4792 -0.7619
vn -0.3084 -0.4810 -0.8207
vn 0.6180 -0.4792 -0.6232
vn -0.0855 -0.4810 -0.8725
vn 0.7582 -0.4792 -0.4420
vn 0.1432 -0.4810 -0.8649
vn 0.8468 -0.4792 -0.2307
vn 0.3622 -0.4810 -0.7984
vn 0.8777 -0.4792 -0.0037
vn 0.5565 -0.4810 -0.6775
vn 0.8487 -0.4792 0.2236
vn 0.7129 -0.4810 -0.5103
vn 0.7619 -0.4792 0.4356
vn 0.8207 -0.4810 -0.3084
vn 0.6232 -0.4792 0.6180
vn 0.8725 -0.4810 -0.0855
vn 0.4420 -0.4792 0.7582
vn 0.8649 -0.4810 0.1432
vn 0.2307 -0.4792 0.8468
vn 0.7984 -0.4810 0.3622
vn 0.0037 -0.4792 0.8777
vn 0.6775 -0.4810 0.5565
vn -0.2236 -0.4792 0.8487
vn 0.5103 -0.4810 0.7129
vn -0.4356 -0.4792 0.7619
vn 0.3084 -0.4810 0.8207
vn -0.6180 -0.4792 0.6232
vn 0.0855 -0.4810 0.8725
vn -0.7582 -0.4792 0.4420
vn -0.1432 -0.4810 0.8649
vn -0.8468 -0.4792 0.2307
vn -0.3622 -0.4810 0.7984
vn -0.8777 -0.4792 0.0037
vn -0.5565 -0.4810 0.6775
vn -0.8487 -0.4792 -0.2236
vn -0.7129 -0.4810 0.5103
vn -0.7619 -0.4792 -0.4356
vn -0.8207 -0.4810 0.3084
vn -0.6232 -0.4792 -0.6180
vn -0.8725 -0.4810 0.0855
vn -0.4420 -0.4792 -0.7582
vn -0.8649 -0.4810 -0.1432
vn -0.2307 -0.4792 -0.8468
vn -0.7984 -0.4810 -0.3622
vn -0.0560 -0.4809 -0.8750
vn -0.2875 -0.4848 -0.8260
vn -0.5469 -0.4839 -0.6832
vn -0.3514 -0.4839 -0.8015
vn -0.0639 -0.4848 -0.8723
vn 0.1724 -0.4809 -0.8597
vn -0.1320 -0.4839 -0.8651
vn 0.1640 -0.4848 -0.8591
vn 0.3890 -0.4809 -0.7858
vn 0.0964 -0.4839 -0.8698
vn 0.3808 -0.4848 -0.7874
vn 0.5791 -0.4809 -0.6583
vn 0.3182 -0.4839 -0.8152
vn 0.5716 -0.4848 -0.6620
vn 0.7298 -0.4809 -0.4860
vn 0.5184 -0.4839 -0.7051
vn 0.7235 -0.4848 -0.4915
vn 0.8307 -0.4809 -0.2805
vn 0.6832 -0.4839 -0.5469
vn 0.8260 -0.4848 -0.2875
vn 0.8750 -0.4809 -0.0560
vn 0.8015 -0.4839 -0.3514
vn 0.8723 -0.4848 -0.0639
vn 0.8597 -0.4809 0.1724
vn 0.8651 -0.4839 -0.1320
vn 0.8591 -0.4848 0.1640
vn 0.7858 -0.4809 0.3890
vn 0.8698 -0.4839 0.0964
vn 0.7874 -0.4848 0.3808
vn 0.6583 -0.4809 0.5791
vn 0.8152 -0.4839 0.3182
vn 0.6620 -0.4848 0.5716
vn 0.4860 -0.4809 0.7298
vn 0.7051 -0.4839 0.5184
vn 0.4915 -0.4848 0.7235
vn 0.2805 -0.4809 0.8307
vn 0.5469 -0.4839 0.6832
vn 0.2875 -0.4848 0.8260
vn 0.0560 -0.4809 0.8750
vn 0.3514 -0.4839 0.8015
vn 0.0639 -0.4848 0.8723
vn -0.1724 -0.4809 0.8597
vn 0.1320 -0.4839 0.8651
vn -0.1640 -0.4848 0.8591
vn -0.3890 -0.4809 0.7858
vn -0.0964 -0.4839 0.8698
vn -0.3808 -0.4848 0.7874
vn -0.5791 -0.4809 0.6583
vn -0.3182 -0.4839 0.8152
vn -0.5716 -0.4848 0.6620
vn -0.7298 -0.4809 0.4860
vn -0.5184 -0.4839 0.7051
vn -0.7235 -0.4848 0.4915
vn -0.8307 -0.4809 0.2805
vn -0.6832 -0.4839 0.5469
vn -0.8260 -0.4848 0.2875
vn -0.8750 -0.4809 0.0560
vn -0.8015 -0.4839 0.3514
vn -0.8723 -0.4848 0.0639
vn -0.8597 -0.4809 -0.1724
vn -0.8651 -0.4839 0.1320
vn -0.8591 -0.4848 -0.1640
vn -0.7858 -0.4809 -0.3890
vn -0.8698 -0.4839 -0.0964
vn -0.7874 -0.4848 -0.3808
vn -0.6583 -0.4809 -0.5791
vn -0.8152 -0.4839 -0.3182
vn -0.6620 -0.4848 -0.5716
vn -0.4860 -0.4809 -0.7298
vn -0.7051 -0.4839 -0.5184
vn -0.4915 -0.4848 -0.7235
vn -0.2805 -0.4809 -0.8307
vt 1.000000 0.711083
vt 1.000000 1.000000
vt 0.958333 1.000000
vt 0.958333 0.711083
vt 0.916667 1.000000
vt 0.916667 0.711083
vt 0.875000 1.000000
vt 0.875000 0.711083
vt 0.833333 1.000000
vt 0.833333 0.711083
vt 0.791667 1.000000
vt 0.791667 0.711083
vt 0.750000 1.000000
vt 0.750000 0.711083
vt 0.708333 1.000000
vt 0.708333 0.711083
vt 0.666667 1.000000
vt 0.666667 0.711083
vt 0.625000 1.000000
vt 0.625000 0.711083
vt 0.583333 1.000000
vt 0.583333 0.711083
vt 0.541666 1.000000
vt 0.541666 0.711083
vt 0.500000 1.000000
vt 0.500000 0.711083
vt 0.458333 1.000000
vt 0.458333 0.711083
vt 0.416666 1.000000
vt 0.416666 0.711083
vt 0.375000 1.000000
vt 0.375000 0.711083
vt 0.333333 1.000000
vt 0.333333 0.711083
vt 0.291667 1.000000
vt 0.291667 0.711083
vt 0.250000 1.000000
vt 0.250000 0.711083
vt 0.208333 1.000000
vt 0.208333 0.711083
vt 0.166666 1.000000
vt 0.166666 0.711083
vt 0.125000 1.000000
vt 0.125000 0.711083
vt 0.083333 1.000000
vt 0.083333 0.711083
vt 0.041666 1.000000
vt 0.041666 0.711083
vt -0.000000 1.000000
vt -0.000000 0.711083
vt 0.041666 0.000000
vt 0.041666 0.211083
vt -0.000000 0.211083
vt -0.000000 0.000000
vt 0.041666 0.461083
vt -0.000000 0.461083
vt 0.083333 0.000000
vt 0.083333 0.211083
vt 0.083333 0.461083
vt 0.125000 0.000000
vt 0.125000 0.211083
vt 0.125000 0.461083
vt 0.166666 0.000000
vt 0.166666 0.211083
vt 0.166666 0.461083
vt 0.208333 0.000000
vt 0.208333 0.211083
vt 0.208333 0.461083
vt 0.250000 0.000000
vt 0.250000 0.211083
vt 0.250000 0.461083
vt 0.291667 0.000000
vt 0.291667 0.211083
vt 0.291667 0.461083
vt 0.333333 0.000000
vt 0.333333 0.211083
vt 0.333333 0.461083
vt 0.375000 0.000000
vt 0.375000 0.211083
vt 0.375000 0.461083
vt 0.416666 0.000000
vt 0.416666 0.211083
vt 0.416667 0.461083
vt 0.458333 0.000000
vt 0.458333 0.211083
vt 0.458333 0.461083
vt 0.500000 0.000000
vt 0.500000 0.211083
vt 0.500000 0.461083
vt 0.541666 0.000000
vt 0.541666 0.211083
vt 0.541667 0.461083
vt 0.583333 0.000000
vt 0.583333 0.211083
vt 0.583333 0.461083
vt 0.625000 0.000000
vt 0.625000 0.211083
vt 0.625000 0.461083
vt 0.666667 0.000000
vt 0.666667 0.211083
vt 0.666667 0.461083
vt 0.708333 0.000000
vt 0.708333 0.211083
vt 0.708333 0.461083
vt 0.750000 0.000000
vt 0.750000 0.211083
vt 0.750000 0.461083
vt 0.791667 0.000000
vt 0.791667 0.211083
vt 0.791667 0.461083
vt 0.833333 0.000000
vt 0.833333 0.211083
vt 0.833333 0.461083
vt 0.875000 0.000000
vt 0.875000 0.211083
vt 0.875000 0.461083
vt 0.916667 0.000000
vt 0.916667 0.211083
vt 0.916667 0.461083
vt 0.958333 0.000000
vt 0.958333 0.211083
vt 0.958333 0.461083
vt 1.000000 0.000000
vt 1.000000 0.211083
vt 1.000000 0.461083
s 1
f 51/1/51 2/2/2 4/3/4 52/4/52
f 52/4/52 4/3/4 6/5/6 55/6/55
f 55/6/55 6/5/6 8/7/8 58/8/58
f 58/8/58 8/7/8 10/9/10 61/10/61
f 61/10/61 10/9/10 12/11/12 64/12/64
f 64/12/64 12/11/12 14/13/14 67/14/67
f 67/14/67 14/13/14 16/15/16 70/16/70
f 70/16/70 16/15/16 18/17/18 73/18/73
f 73/18/73 18/17/18 20/19/20 76/20/76
f 76/20/76 20/19/20 22/21/22 79/22/79
f 79/22/79 22/21/22 24/23/24 82/24/82
f 82/24/82 24/23/24 26/25/26 85/26/85
f 85/26/85 26/25/26 28/27/28 88/28/88
f 88/28/88 28/27/28 30/29/30 91/30/91
f 91/30/91 30/29/30 32/31/32 94/32/94
f 94/32/94 32/31/32 34/33/34 97/34/97
f 97/34/97 34/33/34 36/35/36 100/36/100
f 100/36/100 36/35/36 38/37/38 103/38/103
f 103/38/103 38/37/38 40/39/40 106/40/106
f 106/40/106 40/39/40 42/41/42 109/42/109
f 109/42/109 42/41/42 44/43/44 112/44/112
f 112/44/112 44/43/44 46/45/46 115/46/115
f 115/46/115 46/45/46 48/47/48 118/48/118
f 118/48/118 48/47/48 2/49/2 51/50/51
f 47/51/47 120/52/120 49/53/49 1/54/1
f 120/52/120 119/55/119 50/56/50 49/53/49
f 119/55/119 118/48/118 51/50/51 50/56/50
f 45/57/45 117/58/117 120/52/120 47/51/47
f 117/58/117 116/59/116 119/55/119 120/52/120
f 116/59/116 115/46/115 118/48/118 119/55/119
f 43/60/43 114/61/114 117/58/117 45/57/45
f 114/61/114 113/62/113 116/59/116 117/58/117
f 113/62/113 112/44/112 115/46/115 116/59/116
f 41/63/41 111/64/111 114/61/114 43/60/43
f 111/64/111 110/65/110 113/62/113 114/61/114
f 110/65/110 109/42/109 112/44/112 113/62/113
f 39/66/39 108/67/108 111/64/111 41/63/41
f 108/67/108 107/68/107 110/65/110 111/64/111
f 107/68/107 106/40/106 109/42/109 110/65/110
f 37/69/37 105/70/105 108/67/108 39/66/39
f 105/70/105 104/71/104 107/68/107 108/67/108
f 104/71/104 103/38/103 106/40/106 107/68/107
f 35/72/35 102/73/102 105/70/105 37/69/37
f 102/73/102 101/74/101 104/71/104 105/70/105
f 101/74/101 100/36/100 103/38/103 104/71/104
f 33/75/33 99/76/99 102/73/102 35/72/35
f 99/76/99 98/77/98 101/74/101 102/73/102
f 98/77/98 97/34/97 100/36/100 101/74/101
f 31/78/31 96/79/96 99/76/99 33/75/33
f 96/79/96 95/80/95 98/77/98 99/76/99
f 95/80/95 94/32/94 97/34/97 98/77/98
f 29/81/29 93/82/93 96/79/96 31/78/31
f 93/82/93 92/83/92 95/80/95 96/79/96
f 92/83/92 91/30/91 94/32/94 95/80/95
f 27/84/27 90/85/90 93/82/93 29/81/29
f 90/85/90 89/86/89 92/83/92 93/82/93
f 89/86/89 88/28/88 91/30/91 92/83/92
f 25/87/25 87/88/87 90/85/90 27/84/27
f 87/88/87 86/89/86 89/86/89 90/85/90
f 86/89/86 85/26/85 88/28/88 89/86/89
f 23/90/23 84/91/84 87/88/87 25/87/25
f 84/91/84 83/92/83 86/89/86 87/88/87
f 83/92/83 82/24/82 85/26/85 86/89/86
f 21/93/21 81/94/81 84/91/84 23/90/23
f 81/94/81 80/95/80 83/92/83 84/91/84
f 80/95/80 79/22/79 82/24/82 83/92/83
f 19/96/19 78/97/78 81/94/81 21/93/21
f 78/97/78 77/98/77 80/95/80 81/94/81
f 77/98/77 76/20/76 79/22/79 80/95/80
f 17/99/17 75/100/75 78/97/78 19/96/19
f 75/100/75 74/101/74 77/98/77 78/97/78
f 74/101/74 73/18/73 76/20/76 77/98/77
f 15/102/15 72/103/72 75/100/75 17/99/17
f 72/103/72 71/104/71 74/101/74 75/100/75
f 71/104/71 70/16/70 73/18/73 74/101/74
f 13/105/13 69/106/69 72/103/72 15/102/15
f 69/106/69 68/107/68 71/104/71 72/103/72
f 68/107/68 67/14/67 70/16/70 71/104/71
f 11/108/11 66/109/66 69/106/69 13/105/13
f 66/109/66 65/110/65 68/107/68 69/106/69
f 65/110/65 64/12/64 67/14/67 68/107/68
f 9/111/9 63/112/63 66/109/66 11/108/11
f 63/112/63 62/113/62 65/110/65 66/109/66
f 62/113/62 61/10/61 64/12/64 65/110/65
f 7/114/7 60/115/60 63/112/63 9/111/9
f 60/115/60 59/116/59 62/113/62 63/112/63
f 59/116/59 58/8/58 61/10/61 62/113/62
f 5/117/5 57/118/57 60/115/60 7/114/7
f 57/118/57 56/119/56 59/116/59 60/115/60
f 56/119/56 55/6/55 58/8/58 59/116/59
f 3/120/3 54/121/54 57/118/57 5/117/5
f 54/121/54 53/122/53 56/119/56 57/118/57
f 53/122/53 52/4/52 55/6/55 56/119/56
f 1/123/1 49/124/49 54/121/54 3/120/3
f 49/124/49 50/125/50 53/122/53 54/121/54
f 50/125/50 51/1/51 52/4/52 53/122/53
